<mxfile host="app.diagrams.net" agent="Mozilla/5.0 (X11; Linux x86_64; rv:128.0) Gecko/20100101 Firefox/128.0" version="26.0.3">
  <diagram name="Page-1" id="EMa1pMTZzpA0k4Gmwb4X">
    <mxGraphModel dx="989" dy="1252" grid="1" gridSize="10" guides="1" tooltips="1" connect="1" arrows="1" fold="1" page="1" pageScale="1" pageWidth="827" pageHeight="1169" math="0" shadow="0">
      <root>
        <mxCell id="0" />
        <mxCell id="1" parent="0" />
        <mxCell id="xk-oOxLGbY3HGCxId3EP-90" value="&lt;font style=&quot;font-size: 14px;&quot; color=&quot;#9a9996&quot;&gt;&lt;b&gt;t&lt;sub&gt;6&lt;/sub&gt;&lt;/b&gt;&lt;/font&gt;" style="text;html=1;align=center;verticalAlign=middle;whiteSpace=wrap;rounded=0;" parent="1" vertex="1">
          <mxGeometry x="570" y="1010" width="60" height="30" as="geometry" />
        </mxCell>
        <mxCell id="xk-oOxLGbY3HGCxId3EP-108" value="" style="rounded=0;whiteSpace=wrap;html=1;fillColor=#f5f5f5;strokeColor=#666666;fontColor=#333333;strokeWidth=2;" parent="1" vertex="1">
          <mxGeometry x="160" y="430" width="80" height="580" as="geometry" />
        </mxCell>
        <mxCell id="xk-oOxLGbY3HGCxId3EP-109" value="" style="rounded=0;whiteSpace=wrap;html=1;fillColor=#dae8fc;strokeColor=#6c8ebf;strokeWidth=2;" parent="1" vertex="1">
          <mxGeometry x="170" y="440" width="60" height="140" as="geometry" />
        </mxCell>
        <mxCell id="xk-oOxLGbY3HGCxId3EP-110" value="" style="rounded=0;whiteSpace=wrap;html=1;fillColor=#f8cecc;strokeColor=#b85450;strokeWidth=2;" parent="1" vertex="1">
          <mxGeometry x="180" y="490" width="40" height="40" as="geometry" />
        </mxCell>
        <mxCell id="xk-oOxLGbY3HGCxId3EP-111" value="" style="rounded=0;whiteSpace=wrap;html=1;fillColor=#f8cecc;strokeColor=#b85450;strokeWidth=2;" parent="1" vertex="1">
          <mxGeometry x="180" y="530" width="40" height="40" as="geometry" />
        </mxCell>
        <mxCell id="xk-oOxLGbY3HGCxId3EP-112" value="&lt;font color=&quot;#9a9996&quot;&gt;&lt;b&gt;&lt;font style=&quot;font-size: 14px;&quot;&gt;t&lt;sub&gt;1&lt;br&gt;&lt;/sub&gt;&lt;/font&gt;&lt;/b&gt;&lt;/font&gt;" style="text;html=1;align=center;verticalAlign=middle;whiteSpace=wrap;rounded=0;" parent="1" vertex="1">
          <mxGeometry x="170" y="1010" width="60" height="30" as="geometry" />
        </mxCell>
        <mxCell id="xk-oOxLGbY3HGCxId3EP-98" style="rounded=0;orthogonalLoop=1;jettySize=auto;html=1;entryX=0;entryY=0.5;entryDx=0;entryDy=0;endArrow=none;endFill=0;strokeWidth=2;strokeColor=#6c8ebf;fillColor=#dae8fc;" parent="1" source="xk-oOxLGbY3HGCxId3EP-94" edge="1">
          <mxGeometry relative="1" as="geometry">
            <mxPoint x="170" y="930" as="targetPoint" />
          </mxGeometry>
        </mxCell>
        <mxCell id="xk-oOxLGbY3HGCxId3EP-94" value="&lt;div&gt;&lt;font color=&quot;#1a5fb4&quot;&gt;&lt;b&gt;&lt;font style=&quot;font-size: 14px;&quot;&gt;Batch 4&lt;/font&gt;&lt;/b&gt;&lt;/font&gt;&lt;/div&gt;" style="text;html=1;align=center;verticalAlign=middle;whiteSpace=wrap;rounded=0;" parent="1" vertex="1">
          <mxGeometry x="80" y="915" width="60" height="30" as="geometry" />
        </mxCell>
        <mxCell id="xk-oOxLGbY3HGCxId3EP-95" style="rounded=0;orthogonalLoop=1;jettySize=auto;html=1;endArrow=none;endFill=0;strokeWidth=2;fillColor=#dae8fc;strokeColor=#6c8ebf;" parent="1" source="xk-oOxLGbY3HGCxId3EP-91" edge="1">
          <mxGeometry relative="1" as="geometry">
            <mxPoint x="170" y="510" as="targetPoint" />
          </mxGeometry>
        </mxCell>
        <mxCell id="xk-oOxLGbY3HGCxId3EP-91" value="&lt;font color=&quot;#1a5fb4&quot;&gt;&lt;b&gt;&lt;font style=&quot;font-size: 14px;&quot;&gt;Batch 1&lt;/font&gt;&lt;/b&gt;&lt;/font&gt;" style="text;html=1;align=center;verticalAlign=middle;whiteSpace=wrap;rounded=0;" parent="1" vertex="1">
          <mxGeometry x="80" y="495" width="60" height="30" as="geometry" />
        </mxCell>
        <mxCell id="xk-oOxLGbY3HGCxId3EP-96" style="rounded=0;orthogonalLoop=1;jettySize=auto;html=1;entryX=0;entryY=0.5;entryDx=0;entryDy=0;endArrow=none;endFill=0;strokeWidth=2;strokeColor=#6c8ebf;fillColor=#dae8fc;" parent="1" source="xk-oOxLGbY3HGCxId3EP-92" edge="1">
          <mxGeometry relative="1" as="geometry">
            <mxPoint x="170" y="650" as="targetPoint" />
          </mxGeometry>
        </mxCell>
        <mxCell id="xk-oOxLGbY3HGCxId3EP-92" value="&lt;div&gt;&lt;font color=&quot;#1a5fb4&quot;&gt;&lt;b&gt;&lt;font style=&quot;font-size: 14px;&quot;&gt;Batch 2&lt;/font&gt;&lt;/b&gt;&lt;/font&gt;&lt;/div&gt;" style="text;html=1;align=center;verticalAlign=middle;whiteSpace=wrap;rounded=0;" parent="1" vertex="1">
          <mxGeometry x="80" y="635" width="60" height="30" as="geometry" />
        </mxCell>
        <mxCell id="xk-oOxLGbY3HGCxId3EP-97" style="rounded=0;orthogonalLoop=1;jettySize=auto;html=1;entryX=0;entryY=0.5;entryDx=0;entryDy=0;endArrow=none;endFill=0;strokeWidth=2;strokeColor=#6c8ebf;fillColor=#dae8fc;" parent="1" source="xk-oOxLGbY3HGCxId3EP-93" edge="1">
          <mxGeometry relative="1" as="geometry">
            <mxPoint x="170" y="790" as="targetPoint" />
          </mxGeometry>
        </mxCell>
        <mxCell id="xk-oOxLGbY3HGCxId3EP-93" value="&lt;div&gt;&lt;font color=&quot;#1a5fb4&quot;&gt;&lt;b&gt;&lt;font style=&quot;font-size: 14px;&quot;&gt;Batch 3&lt;/font&gt;&lt;/b&gt;&lt;/font&gt;&lt;/div&gt;" style="text;html=1;align=center;verticalAlign=middle;whiteSpace=wrap;rounded=0;" parent="1" vertex="1">
          <mxGeometry x="80" y="775" width="60" height="30" as="geometry" />
        </mxCell>
        <mxCell id="xk-oOxLGbY3HGCxId3EP-175" value="&lt;font color=&quot;#9a9996&quot;&gt;&lt;b&gt;&lt;font style=&quot;font-size: 14px;&quot;&gt;t&lt;sub&gt;2&lt;br&gt;&lt;/sub&gt;&lt;/font&gt;&lt;/b&gt;&lt;/font&gt;" style="text;html=1;align=center;verticalAlign=middle;whiteSpace=wrap;rounded=0;" parent="1" vertex="1">
          <mxGeometry x="250" y="1010" width="60" height="30" as="geometry" />
        </mxCell>
        <mxCell id="xk-oOxLGbY3HGCxId3EP-189" value="&lt;font color=&quot;#9a9996&quot;&gt;&lt;b&gt;&lt;font style=&quot;font-size: 14px;&quot;&gt;t&lt;sub&gt;3&lt;br&gt;&lt;/sub&gt;&lt;/font&gt;&lt;/b&gt;&lt;/font&gt;" style="text;html=1;align=center;verticalAlign=middle;whiteSpace=wrap;rounded=0;" parent="1" vertex="1">
          <mxGeometry x="330" y="1010" width="60" height="30" as="geometry" />
        </mxCell>
        <mxCell id="xk-oOxLGbY3HGCxId3EP-203" value="&lt;font color=&quot;#9a9996&quot;&gt;&lt;b&gt;&lt;font style=&quot;font-size: 14px;&quot;&gt;t&lt;sub&gt;4&lt;br&gt;&lt;/sub&gt;&lt;/font&gt;&lt;/b&gt;&lt;/font&gt;" style="text;html=1;align=center;verticalAlign=middle;whiteSpace=wrap;rounded=0;" parent="1" vertex="1">
          <mxGeometry x="410" y="1010" width="60" height="30" as="geometry" />
        </mxCell>
        <mxCell id="xk-oOxLGbY3HGCxId3EP-217" value="&lt;font color=&quot;#9a9996&quot;&gt;&lt;b&gt;&lt;font style=&quot;font-size: 14px;&quot;&gt;t&lt;sub&gt;5&lt;br&gt;&lt;/sub&gt;&lt;/font&gt;&lt;/b&gt;&lt;/font&gt;" style="text;html=1;align=center;verticalAlign=middle;whiteSpace=wrap;rounded=0;" parent="1" vertex="1">
          <mxGeometry x="490" y="1010" width="60" height="30" as="geometry" />
        </mxCell>
        <mxCell id="bDiA2zRultxk5sdH1IKU-1" value="" style="rounded=0;whiteSpace=wrap;html=1;fillColor=#f8cecc;strokeColor=#b85450;strokeWidth=2;" vertex="1" parent="1">
          <mxGeometry x="180" y="450" width="40" height="40" as="geometry" />
        </mxCell>
        <mxCell id="bDiA2zRultxk5sdH1IKU-2" value="" style="rounded=0;whiteSpace=wrap;html=1;fillColor=#dae8fc;strokeColor=#6c8ebf;strokeWidth=2;" vertex="1" parent="1">
          <mxGeometry x="170" y="580" width="60" height="140" as="geometry" />
        </mxCell>
        <mxCell id="bDiA2zRultxk5sdH1IKU-3" value="" style="rounded=0;whiteSpace=wrap;html=1;fillColor=#f8cecc;strokeColor=#b85450;strokeWidth=2;" vertex="1" parent="1">
          <mxGeometry x="180" y="630" width="40" height="40" as="geometry" />
        </mxCell>
        <mxCell id="bDiA2zRultxk5sdH1IKU-4" value="" style="rounded=0;whiteSpace=wrap;html=1;fillColor=#f8cecc;strokeColor=#b85450;strokeWidth=2;" vertex="1" parent="1">
          <mxGeometry x="180" y="670" width="40" height="40" as="geometry" />
        </mxCell>
        <mxCell id="bDiA2zRultxk5sdH1IKU-5" value="" style="rounded=0;whiteSpace=wrap;html=1;fillColor=#f8cecc;strokeColor=#b85450;strokeWidth=2;" vertex="1" parent="1">
          <mxGeometry x="180" y="590" width="40" height="40" as="geometry" />
        </mxCell>
        <mxCell id="bDiA2zRultxk5sdH1IKU-6" value="" style="rounded=0;whiteSpace=wrap;html=1;fillColor=#dae8fc;strokeColor=#6c8ebf;strokeWidth=2;" vertex="1" parent="1">
          <mxGeometry x="170" y="720" width="60" height="140" as="geometry" />
        </mxCell>
        <mxCell id="bDiA2zRultxk5sdH1IKU-7" value="" style="rounded=0;whiteSpace=wrap;html=1;fillColor=#f8cecc;strokeColor=#b85450;strokeWidth=2;" vertex="1" parent="1">
          <mxGeometry x="180" y="770" width="40" height="40" as="geometry" />
        </mxCell>
        <mxCell id="bDiA2zRultxk5sdH1IKU-8" value="" style="rounded=0;whiteSpace=wrap;html=1;fillColor=#f8cecc;strokeColor=#b85450;strokeWidth=2;" vertex="1" parent="1">
          <mxGeometry x="180" y="810" width="40" height="40" as="geometry" />
        </mxCell>
        <mxCell id="bDiA2zRultxk5sdH1IKU-9" value="" style="rounded=0;whiteSpace=wrap;html=1;fillColor=#f8cecc;strokeColor=#b85450;strokeWidth=2;" vertex="1" parent="1">
          <mxGeometry x="180" y="730" width="40" height="40" as="geometry" />
        </mxCell>
        <mxCell id="bDiA2zRultxk5sdH1IKU-10" value="" style="rounded=0;whiteSpace=wrap;html=1;fillColor=#dae8fc;strokeColor=#6c8ebf;strokeWidth=2;" vertex="1" parent="1">
          <mxGeometry x="170" y="860" width="60" height="140" as="geometry" />
        </mxCell>
        <mxCell id="bDiA2zRultxk5sdH1IKU-11" value="" style="rounded=0;whiteSpace=wrap;html=1;fillColor=#f8cecc;strokeColor=#b85450;strokeWidth=2;" vertex="1" parent="1">
          <mxGeometry x="180" y="910" width="40" height="40" as="geometry" />
        </mxCell>
        <mxCell id="bDiA2zRultxk5sdH1IKU-12" value="" style="rounded=0;whiteSpace=wrap;html=1;fillColor=#f8cecc;strokeColor=#b85450;strokeWidth=2;" vertex="1" parent="1">
          <mxGeometry x="180" y="950" width="40" height="40" as="geometry" />
        </mxCell>
        <mxCell id="bDiA2zRultxk5sdH1IKU-13" value="" style="rounded=0;whiteSpace=wrap;html=1;fillColor=#f8cecc;strokeColor=#b85450;strokeWidth=2;" vertex="1" parent="1">
          <mxGeometry x="180" y="870" width="40" height="40" as="geometry" />
        </mxCell>
        <mxCell id="bDiA2zRultxk5sdH1IKU-14" value="" style="rounded=0;whiteSpace=wrap;html=1;fillColor=#f5f5f5;strokeColor=#666666;fontColor=#333333;strokeWidth=2;" vertex="1" parent="1">
          <mxGeometry x="240" y="430" width="80" height="580" as="geometry" />
        </mxCell>
        <mxCell id="bDiA2zRultxk5sdH1IKU-15" value="" style="rounded=0;whiteSpace=wrap;html=1;fillColor=#dae8fc;strokeColor=#6c8ebf;strokeWidth=2;" vertex="1" parent="1">
          <mxGeometry x="250" y="440" width="60" height="140" as="geometry" />
        </mxCell>
        <mxCell id="bDiA2zRultxk5sdH1IKU-16" value="" style="rounded=0;whiteSpace=wrap;html=1;fillColor=#f8cecc;strokeColor=#b85450;strokeWidth=2;" vertex="1" parent="1">
          <mxGeometry x="260" y="490" width="40" height="40" as="geometry" />
        </mxCell>
        <mxCell id="bDiA2zRultxk5sdH1IKU-17" value="" style="rounded=0;whiteSpace=wrap;html=1;fillColor=#f8cecc;strokeColor=#b85450;strokeWidth=2;" vertex="1" parent="1">
          <mxGeometry x="260" y="530" width="40" height="40" as="geometry" />
        </mxCell>
        <mxCell id="bDiA2zRultxk5sdH1IKU-18" value="" style="rounded=0;whiteSpace=wrap;html=1;fillColor=#f8cecc;strokeColor=#b85450;strokeWidth=2;" vertex="1" parent="1">
          <mxGeometry x="260" y="450" width="40" height="40" as="geometry" />
        </mxCell>
        <mxCell id="bDiA2zRultxk5sdH1IKU-19" value="" style="rounded=0;whiteSpace=wrap;html=1;fillColor=#dae8fc;strokeColor=#6c8ebf;strokeWidth=2;" vertex="1" parent="1">
          <mxGeometry x="250" y="580" width="60" height="140" as="geometry" />
        </mxCell>
        <mxCell id="bDiA2zRultxk5sdH1IKU-20" value="" style="rounded=0;whiteSpace=wrap;html=1;fillColor=#f8cecc;strokeColor=#b85450;strokeWidth=2;" vertex="1" parent="1">
          <mxGeometry x="260" y="630" width="40" height="40" as="geometry" />
        </mxCell>
        <mxCell id="bDiA2zRultxk5sdH1IKU-21" value="" style="rounded=0;whiteSpace=wrap;html=1;fillColor=#f8cecc;strokeColor=#b85450;strokeWidth=2;" vertex="1" parent="1">
          <mxGeometry x="260" y="670" width="40" height="40" as="geometry" />
        </mxCell>
        <mxCell id="bDiA2zRultxk5sdH1IKU-22" value="" style="rounded=0;whiteSpace=wrap;html=1;fillColor=#f8cecc;strokeColor=#b85450;strokeWidth=2;" vertex="1" parent="1">
          <mxGeometry x="260" y="590" width="40" height="40" as="geometry" />
        </mxCell>
        <mxCell id="bDiA2zRultxk5sdH1IKU-23" value="" style="rounded=0;whiteSpace=wrap;html=1;fillColor=#dae8fc;strokeColor=#6c8ebf;strokeWidth=2;" vertex="1" parent="1">
          <mxGeometry x="250" y="720" width="60" height="140" as="geometry" />
        </mxCell>
        <mxCell id="bDiA2zRultxk5sdH1IKU-24" value="" style="rounded=0;whiteSpace=wrap;html=1;fillColor=#f8cecc;strokeColor=#b85450;strokeWidth=2;" vertex="1" parent="1">
          <mxGeometry x="260" y="770" width="40" height="40" as="geometry" />
        </mxCell>
        <mxCell id="bDiA2zRultxk5sdH1IKU-25" value="" style="rounded=0;whiteSpace=wrap;html=1;fillColor=#f8cecc;strokeColor=#b85450;strokeWidth=2;" vertex="1" parent="1">
          <mxGeometry x="260" y="810" width="40" height="40" as="geometry" />
        </mxCell>
        <mxCell id="bDiA2zRultxk5sdH1IKU-26" value="" style="rounded=0;whiteSpace=wrap;html=1;fillColor=#f8cecc;strokeColor=#b85450;strokeWidth=2;" vertex="1" parent="1">
          <mxGeometry x="260" y="730" width="40" height="40" as="geometry" />
        </mxCell>
        <mxCell id="bDiA2zRultxk5sdH1IKU-27" value="" style="rounded=0;whiteSpace=wrap;html=1;fillColor=#dae8fc;strokeColor=#6c8ebf;strokeWidth=2;" vertex="1" parent="1">
          <mxGeometry x="250" y="860" width="60" height="140" as="geometry" />
        </mxCell>
        <mxCell id="bDiA2zRultxk5sdH1IKU-28" value="" style="rounded=0;whiteSpace=wrap;html=1;fillColor=#f8cecc;strokeColor=#b85450;strokeWidth=2;" vertex="1" parent="1">
          <mxGeometry x="260" y="910" width="40" height="40" as="geometry" />
        </mxCell>
        <mxCell id="bDiA2zRultxk5sdH1IKU-29" value="" style="rounded=0;whiteSpace=wrap;html=1;fillColor=#f8cecc;strokeColor=#b85450;strokeWidth=2;" vertex="1" parent="1">
          <mxGeometry x="260" y="950" width="40" height="40" as="geometry" />
        </mxCell>
        <mxCell id="bDiA2zRultxk5sdH1IKU-30" value="" style="rounded=0;whiteSpace=wrap;html=1;fillColor=#f8cecc;strokeColor=#b85450;strokeWidth=2;" vertex="1" parent="1">
          <mxGeometry x="260" y="870" width="40" height="40" as="geometry" />
        </mxCell>
        <mxCell id="bDiA2zRultxk5sdH1IKU-31" value="" style="rounded=0;whiteSpace=wrap;html=1;fillColor=#f5f5f5;strokeColor=#666666;fontColor=#333333;strokeWidth=2;" vertex="1" parent="1">
          <mxGeometry x="320" y="430" width="80" height="580" as="geometry" />
        </mxCell>
        <mxCell id="bDiA2zRultxk5sdH1IKU-32" value="" style="rounded=0;whiteSpace=wrap;html=1;fillColor=#dae8fc;strokeColor=#6c8ebf;strokeWidth=2;" vertex="1" parent="1">
          <mxGeometry x="330" y="440" width="60" height="140" as="geometry" />
        </mxCell>
        <mxCell id="bDiA2zRultxk5sdH1IKU-33" value="" style="rounded=0;whiteSpace=wrap;html=1;fillColor=#f8cecc;strokeColor=#b85450;strokeWidth=2;" vertex="1" parent="1">
          <mxGeometry x="340" y="490" width="40" height="40" as="geometry" />
        </mxCell>
        <mxCell id="bDiA2zRultxk5sdH1IKU-34" value="" style="rounded=0;whiteSpace=wrap;html=1;fillColor=#f8cecc;strokeColor=#b85450;strokeWidth=2;" vertex="1" parent="1">
          <mxGeometry x="340" y="530" width="40" height="40" as="geometry" />
        </mxCell>
        <mxCell id="bDiA2zRultxk5sdH1IKU-35" value="" style="rounded=0;whiteSpace=wrap;html=1;fillColor=#f8cecc;strokeColor=#b85450;strokeWidth=2;" vertex="1" parent="1">
          <mxGeometry x="340" y="450" width="40" height="40" as="geometry" />
        </mxCell>
        <mxCell id="bDiA2zRultxk5sdH1IKU-36" value="" style="rounded=0;whiteSpace=wrap;html=1;fillColor=#dae8fc;strokeColor=#6c8ebf;strokeWidth=2;" vertex="1" parent="1">
          <mxGeometry x="330" y="580" width="60" height="140" as="geometry" />
        </mxCell>
        <mxCell id="bDiA2zRultxk5sdH1IKU-37" value="" style="rounded=0;whiteSpace=wrap;html=1;fillColor=#f8cecc;strokeColor=#b85450;strokeWidth=2;" vertex="1" parent="1">
          <mxGeometry x="340" y="630" width="40" height="40" as="geometry" />
        </mxCell>
        <mxCell id="bDiA2zRultxk5sdH1IKU-38" value="" style="rounded=0;whiteSpace=wrap;html=1;fillColor=#f8cecc;strokeColor=#b85450;strokeWidth=2;" vertex="1" parent="1">
          <mxGeometry x="340" y="670" width="40" height="40" as="geometry" />
        </mxCell>
        <mxCell id="bDiA2zRultxk5sdH1IKU-39" value="" style="rounded=0;whiteSpace=wrap;html=1;fillColor=#f8cecc;strokeColor=#b85450;strokeWidth=2;" vertex="1" parent="1">
          <mxGeometry x="340" y="590" width="40" height="40" as="geometry" />
        </mxCell>
        <mxCell id="bDiA2zRultxk5sdH1IKU-40" value="" style="rounded=0;whiteSpace=wrap;html=1;fillColor=#dae8fc;strokeColor=#6c8ebf;strokeWidth=2;" vertex="1" parent="1">
          <mxGeometry x="330" y="720" width="60" height="140" as="geometry" />
        </mxCell>
        <mxCell id="bDiA2zRultxk5sdH1IKU-41" value="" style="rounded=0;whiteSpace=wrap;html=1;fillColor=#f8cecc;strokeColor=#b85450;strokeWidth=2;" vertex="1" parent="1">
          <mxGeometry x="340" y="770" width="40" height="40" as="geometry" />
        </mxCell>
        <mxCell id="bDiA2zRultxk5sdH1IKU-42" value="" style="rounded=0;whiteSpace=wrap;html=1;fillColor=#f8cecc;strokeColor=#b85450;strokeWidth=2;" vertex="1" parent="1">
          <mxGeometry x="340" y="810" width="40" height="40" as="geometry" />
        </mxCell>
        <mxCell id="bDiA2zRultxk5sdH1IKU-43" value="" style="rounded=0;whiteSpace=wrap;html=1;fillColor=#f8cecc;strokeColor=#b85450;strokeWidth=2;" vertex="1" parent="1">
          <mxGeometry x="340" y="730" width="40" height="40" as="geometry" />
        </mxCell>
        <mxCell id="bDiA2zRultxk5sdH1IKU-44" value="" style="rounded=0;whiteSpace=wrap;html=1;fillColor=#dae8fc;strokeColor=#6c8ebf;strokeWidth=2;" vertex="1" parent="1">
          <mxGeometry x="330" y="860" width="60" height="140" as="geometry" />
        </mxCell>
        <mxCell id="bDiA2zRultxk5sdH1IKU-45" value="" style="rounded=0;whiteSpace=wrap;html=1;fillColor=#f8cecc;strokeColor=#b85450;strokeWidth=2;" vertex="1" parent="1">
          <mxGeometry x="340" y="910" width="40" height="40" as="geometry" />
        </mxCell>
        <mxCell id="bDiA2zRultxk5sdH1IKU-46" value="" style="rounded=0;whiteSpace=wrap;html=1;fillColor=#f8cecc;strokeColor=#b85450;strokeWidth=2;" vertex="1" parent="1">
          <mxGeometry x="340" y="950" width="40" height="40" as="geometry" />
        </mxCell>
        <mxCell id="bDiA2zRultxk5sdH1IKU-47" value="" style="rounded=0;whiteSpace=wrap;html=1;fillColor=#f8cecc;strokeColor=#b85450;strokeWidth=2;" vertex="1" parent="1">
          <mxGeometry x="340" y="870" width="40" height="40" as="geometry" />
        </mxCell>
        <mxCell id="bDiA2zRultxk5sdH1IKU-48" value="" style="rounded=0;whiteSpace=wrap;html=1;fillColor=#f5f5f5;strokeColor=#666666;fontColor=#333333;strokeWidth=2;" vertex="1" parent="1">
          <mxGeometry x="400" y="430" width="80" height="580" as="geometry" />
        </mxCell>
        <mxCell id="bDiA2zRultxk5sdH1IKU-49" value="" style="rounded=0;whiteSpace=wrap;html=1;fillColor=#dae8fc;strokeColor=#6c8ebf;strokeWidth=2;" vertex="1" parent="1">
          <mxGeometry x="410" y="440" width="60" height="140" as="geometry" />
        </mxCell>
        <mxCell id="bDiA2zRultxk5sdH1IKU-50" value="" style="rounded=0;whiteSpace=wrap;html=1;fillColor=#f8cecc;strokeColor=#b85450;strokeWidth=2;" vertex="1" parent="1">
          <mxGeometry x="420" y="490" width="40" height="40" as="geometry" />
        </mxCell>
        <mxCell id="bDiA2zRultxk5sdH1IKU-51" value="" style="rounded=0;whiteSpace=wrap;html=1;fillColor=#f8cecc;strokeColor=#b85450;strokeWidth=2;" vertex="1" parent="1">
          <mxGeometry x="420" y="530" width="40" height="40" as="geometry" />
        </mxCell>
        <mxCell id="bDiA2zRultxk5sdH1IKU-52" value="" style="rounded=0;whiteSpace=wrap;html=1;fillColor=#f8cecc;strokeColor=#b85450;strokeWidth=2;" vertex="1" parent="1">
          <mxGeometry x="420" y="450" width="40" height="40" as="geometry" />
        </mxCell>
        <mxCell id="bDiA2zRultxk5sdH1IKU-53" value="" style="rounded=0;whiteSpace=wrap;html=1;fillColor=#dae8fc;strokeColor=#6c8ebf;strokeWidth=2;" vertex="1" parent="1">
          <mxGeometry x="410" y="580" width="60" height="140" as="geometry" />
        </mxCell>
        <mxCell id="bDiA2zRultxk5sdH1IKU-54" value="" style="rounded=0;whiteSpace=wrap;html=1;fillColor=#f8cecc;strokeColor=#b85450;strokeWidth=2;" vertex="1" parent="1">
          <mxGeometry x="420" y="630" width="40" height="40" as="geometry" />
        </mxCell>
        <mxCell id="bDiA2zRultxk5sdH1IKU-55" value="" style="rounded=0;whiteSpace=wrap;html=1;fillColor=#f8cecc;strokeColor=#b85450;strokeWidth=2;" vertex="1" parent="1">
          <mxGeometry x="420" y="670" width="40" height="40" as="geometry" />
        </mxCell>
        <mxCell id="bDiA2zRultxk5sdH1IKU-56" value="" style="rounded=0;whiteSpace=wrap;html=1;fillColor=#f8cecc;strokeColor=#b85450;strokeWidth=2;" vertex="1" parent="1">
          <mxGeometry x="420" y="590" width="40" height="40" as="geometry" />
        </mxCell>
        <mxCell id="bDiA2zRultxk5sdH1IKU-57" value="" style="rounded=0;whiteSpace=wrap;html=1;fillColor=#dae8fc;strokeColor=#6c8ebf;strokeWidth=2;" vertex="1" parent="1">
          <mxGeometry x="410" y="720" width="60" height="140" as="geometry" />
        </mxCell>
        <mxCell id="bDiA2zRultxk5sdH1IKU-58" value="" style="rounded=0;whiteSpace=wrap;html=1;fillColor=#f8cecc;strokeColor=#b85450;strokeWidth=2;" vertex="1" parent="1">
          <mxGeometry x="420" y="770" width="40" height="40" as="geometry" />
        </mxCell>
        <mxCell id="bDiA2zRultxk5sdH1IKU-59" value="" style="rounded=0;whiteSpace=wrap;html=1;fillColor=#f8cecc;strokeColor=#b85450;strokeWidth=2;" vertex="1" parent="1">
          <mxGeometry x="420" y="810" width="40" height="40" as="geometry" />
        </mxCell>
        <mxCell id="bDiA2zRultxk5sdH1IKU-60" value="" style="rounded=0;whiteSpace=wrap;html=1;fillColor=#f8cecc;strokeColor=#b85450;strokeWidth=2;" vertex="1" parent="1">
          <mxGeometry x="420" y="730" width="40" height="40" as="geometry" />
        </mxCell>
        <mxCell id="bDiA2zRultxk5sdH1IKU-61" value="" style="rounded=0;whiteSpace=wrap;html=1;fillColor=#dae8fc;strokeColor=#6c8ebf;strokeWidth=2;" vertex="1" parent="1">
          <mxGeometry x="410" y="860" width="60" height="140" as="geometry" />
        </mxCell>
        <mxCell id="bDiA2zRultxk5sdH1IKU-62" value="" style="rounded=0;whiteSpace=wrap;html=1;fillColor=#f8cecc;strokeColor=#b85450;strokeWidth=2;" vertex="1" parent="1">
          <mxGeometry x="420" y="910" width="40" height="40" as="geometry" />
        </mxCell>
        <mxCell id="bDiA2zRultxk5sdH1IKU-63" value="" style="rounded=0;whiteSpace=wrap;html=1;fillColor=#f8cecc;strokeColor=#b85450;strokeWidth=2;" vertex="1" parent="1">
          <mxGeometry x="420" y="950" width="40" height="40" as="geometry" />
        </mxCell>
        <mxCell id="bDiA2zRultxk5sdH1IKU-64" value="" style="rounded=0;whiteSpace=wrap;html=1;fillColor=#f8cecc;strokeColor=#b85450;strokeWidth=2;" vertex="1" parent="1">
          <mxGeometry x="420" y="870" width="40" height="40" as="geometry" />
        </mxCell>
        <mxCell id="bDiA2zRultxk5sdH1IKU-65" value="" style="rounded=0;whiteSpace=wrap;html=1;fillColor=#f5f5f5;strokeColor=#666666;fontColor=#333333;strokeWidth=2;" vertex="1" parent="1">
          <mxGeometry x="480" y="430" width="80" height="580" as="geometry" />
        </mxCell>
        <mxCell id="bDiA2zRultxk5sdH1IKU-66" value="" style="rounded=0;whiteSpace=wrap;html=1;fillColor=#dae8fc;strokeColor=#6c8ebf;strokeWidth=2;" vertex="1" parent="1">
          <mxGeometry x="490" y="440" width="60" height="140" as="geometry" />
        </mxCell>
        <mxCell id="bDiA2zRultxk5sdH1IKU-67" value="" style="rounded=0;whiteSpace=wrap;html=1;fillColor=#f8cecc;strokeColor=#b85450;strokeWidth=2;" vertex="1" parent="1">
          <mxGeometry x="500" y="490" width="40" height="40" as="geometry" />
        </mxCell>
        <mxCell id="bDiA2zRultxk5sdH1IKU-68" value="" style="rounded=0;whiteSpace=wrap;html=1;fillColor=#f8cecc;strokeColor=#b85450;strokeWidth=2;" vertex="1" parent="1">
          <mxGeometry x="500" y="530" width="40" height="40" as="geometry" />
        </mxCell>
        <mxCell id="bDiA2zRultxk5sdH1IKU-69" value="" style="rounded=0;whiteSpace=wrap;html=1;fillColor=#f8cecc;strokeColor=#b85450;strokeWidth=2;" vertex="1" parent="1">
          <mxGeometry x="500" y="450" width="40" height="40" as="geometry" />
        </mxCell>
        <mxCell id="bDiA2zRultxk5sdH1IKU-70" value="" style="rounded=0;whiteSpace=wrap;html=1;fillColor=#dae8fc;strokeColor=#6c8ebf;strokeWidth=2;" vertex="1" parent="1">
          <mxGeometry x="490" y="580" width="60" height="140" as="geometry" />
        </mxCell>
        <mxCell id="bDiA2zRultxk5sdH1IKU-71" value="" style="rounded=0;whiteSpace=wrap;html=1;fillColor=#f8cecc;strokeColor=#b85450;strokeWidth=2;" vertex="1" parent="1">
          <mxGeometry x="500" y="630" width="40" height="40" as="geometry" />
        </mxCell>
        <mxCell id="bDiA2zRultxk5sdH1IKU-72" value="" style="rounded=0;whiteSpace=wrap;html=1;fillColor=#f8cecc;strokeColor=#b85450;strokeWidth=2;" vertex="1" parent="1">
          <mxGeometry x="500" y="670" width="40" height="40" as="geometry" />
        </mxCell>
        <mxCell id="bDiA2zRultxk5sdH1IKU-73" value="" style="rounded=0;whiteSpace=wrap;html=1;fillColor=#f8cecc;strokeColor=#b85450;strokeWidth=2;" vertex="1" parent="1">
          <mxGeometry x="500" y="590" width="40" height="40" as="geometry" />
        </mxCell>
        <mxCell id="bDiA2zRultxk5sdH1IKU-74" value="" style="rounded=0;whiteSpace=wrap;html=1;fillColor=#dae8fc;strokeColor=#6c8ebf;strokeWidth=2;" vertex="1" parent="1">
          <mxGeometry x="490" y="720" width="60" height="140" as="geometry" />
        </mxCell>
        <mxCell id="bDiA2zRultxk5sdH1IKU-75" value="" style="rounded=0;whiteSpace=wrap;html=1;fillColor=#f8cecc;strokeColor=#b85450;strokeWidth=2;" vertex="1" parent="1">
          <mxGeometry x="500" y="770" width="40" height="40" as="geometry" />
        </mxCell>
        <mxCell id="bDiA2zRultxk5sdH1IKU-76" value="" style="rounded=0;whiteSpace=wrap;html=1;fillColor=#f8cecc;strokeColor=#b85450;strokeWidth=2;" vertex="1" parent="1">
          <mxGeometry x="500" y="810" width="40" height="40" as="geometry" />
        </mxCell>
        <mxCell id="bDiA2zRultxk5sdH1IKU-77" value="" style="rounded=0;whiteSpace=wrap;html=1;fillColor=#f8cecc;strokeColor=#b85450;strokeWidth=2;" vertex="1" parent="1">
          <mxGeometry x="500" y="730" width="40" height="40" as="geometry" />
        </mxCell>
        <mxCell id="bDiA2zRultxk5sdH1IKU-78" value="" style="rounded=0;whiteSpace=wrap;html=1;fillColor=#dae8fc;strokeColor=#6c8ebf;strokeWidth=2;" vertex="1" parent="1">
          <mxGeometry x="490" y="860" width="60" height="140" as="geometry" />
        </mxCell>
        <mxCell id="bDiA2zRultxk5sdH1IKU-79" value="" style="rounded=0;whiteSpace=wrap;html=1;fillColor=#f8cecc;strokeColor=#b85450;strokeWidth=2;" vertex="1" parent="1">
          <mxGeometry x="500" y="910" width="40" height="40" as="geometry" />
        </mxCell>
        <mxCell id="bDiA2zRultxk5sdH1IKU-80" value="" style="rounded=0;whiteSpace=wrap;html=1;fillColor=#f8cecc;strokeColor=#b85450;strokeWidth=2;" vertex="1" parent="1">
          <mxGeometry x="500" y="950" width="40" height="40" as="geometry" />
        </mxCell>
        <mxCell id="bDiA2zRultxk5sdH1IKU-81" value="" style="rounded=0;whiteSpace=wrap;html=1;fillColor=#f8cecc;strokeColor=#b85450;strokeWidth=2;" vertex="1" parent="1">
          <mxGeometry x="500" y="870" width="40" height="40" as="geometry" />
        </mxCell>
        <mxCell id="bDiA2zRultxk5sdH1IKU-82" value="" style="rounded=0;whiteSpace=wrap;html=1;fillColor=#f5f5f5;strokeColor=#666666;fontColor=#333333;strokeWidth=2;" vertex="1" parent="1">
          <mxGeometry x="560" y="430" width="80" height="580" as="geometry" />
        </mxCell>
        <mxCell id="bDiA2zRultxk5sdH1IKU-83" value="" style="rounded=0;whiteSpace=wrap;html=1;fillColor=#dae8fc;strokeColor=#6c8ebf;strokeWidth=2;" vertex="1" parent="1">
          <mxGeometry x="570" y="440" width="60" height="140" as="geometry" />
        </mxCell>
        <mxCell id="bDiA2zRultxk5sdH1IKU-84" value="" style="rounded=0;whiteSpace=wrap;html=1;fillColor=#f8cecc;strokeColor=#b85450;strokeWidth=2;" vertex="1" parent="1">
          <mxGeometry x="580" y="490" width="40" height="40" as="geometry" />
        </mxCell>
        <mxCell id="bDiA2zRultxk5sdH1IKU-85" value="" style="rounded=0;whiteSpace=wrap;html=1;fillColor=#f8cecc;strokeColor=#b85450;strokeWidth=2;" vertex="1" parent="1">
          <mxGeometry x="580" y="530" width="40" height="40" as="geometry" />
        </mxCell>
        <mxCell id="bDiA2zRultxk5sdH1IKU-86" value="" style="rounded=0;whiteSpace=wrap;html=1;fillColor=#f8cecc;strokeColor=#b85450;strokeWidth=2;" vertex="1" parent="1">
          <mxGeometry x="580" y="450" width="40" height="40" as="geometry" />
        </mxCell>
        <mxCell id="bDiA2zRultxk5sdH1IKU-87" value="" style="rounded=0;whiteSpace=wrap;html=1;fillColor=#dae8fc;strokeColor=#6c8ebf;strokeWidth=2;" vertex="1" parent="1">
          <mxGeometry x="570" y="580" width="60" height="140" as="geometry" />
        </mxCell>
        <mxCell id="bDiA2zRultxk5sdH1IKU-88" value="" style="rounded=0;whiteSpace=wrap;html=1;fillColor=#f8cecc;strokeColor=#b85450;strokeWidth=2;" vertex="1" parent="1">
          <mxGeometry x="580" y="630" width="40" height="40" as="geometry" />
        </mxCell>
        <mxCell id="bDiA2zRultxk5sdH1IKU-89" value="" style="rounded=0;whiteSpace=wrap;html=1;fillColor=#f8cecc;strokeColor=#b85450;strokeWidth=2;" vertex="1" parent="1">
          <mxGeometry x="580" y="670" width="40" height="40" as="geometry" />
        </mxCell>
        <mxCell id="bDiA2zRultxk5sdH1IKU-90" value="" style="rounded=0;whiteSpace=wrap;html=1;fillColor=#f8cecc;strokeColor=#b85450;strokeWidth=2;" vertex="1" parent="1">
          <mxGeometry x="580" y="590" width="40" height="40" as="geometry" />
        </mxCell>
        <mxCell id="bDiA2zRultxk5sdH1IKU-91" value="" style="rounded=0;whiteSpace=wrap;html=1;fillColor=#dae8fc;strokeColor=#6c8ebf;strokeWidth=2;" vertex="1" parent="1">
          <mxGeometry x="570" y="720" width="60" height="140" as="geometry" />
        </mxCell>
        <mxCell id="bDiA2zRultxk5sdH1IKU-92" value="" style="rounded=0;whiteSpace=wrap;html=1;fillColor=#f8cecc;strokeColor=#b85450;strokeWidth=2;" vertex="1" parent="1">
          <mxGeometry x="580" y="770" width="40" height="40" as="geometry" />
        </mxCell>
        <mxCell id="bDiA2zRultxk5sdH1IKU-93" value="" style="rounded=0;whiteSpace=wrap;html=1;fillColor=#f8cecc;strokeColor=#b85450;strokeWidth=2;" vertex="1" parent="1">
          <mxGeometry x="580" y="810" width="40" height="40" as="geometry" />
        </mxCell>
        <mxCell id="bDiA2zRultxk5sdH1IKU-94" value="" style="rounded=0;whiteSpace=wrap;html=1;fillColor=#f8cecc;strokeColor=#b85450;strokeWidth=2;" vertex="1" parent="1">
          <mxGeometry x="580" y="730" width="40" height="40" as="geometry" />
        </mxCell>
        <mxCell id="bDiA2zRultxk5sdH1IKU-95" value="" style="rounded=0;whiteSpace=wrap;html=1;fillColor=#dae8fc;strokeColor=#6c8ebf;strokeWidth=2;" vertex="1" parent="1">
          <mxGeometry x="570" y="860" width="60" height="140" as="geometry" />
        </mxCell>
        <mxCell id="bDiA2zRultxk5sdH1IKU-96" value="" style="rounded=0;whiteSpace=wrap;html=1;fillColor=#f8cecc;strokeColor=#b85450;strokeWidth=2;" vertex="1" parent="1">
          <mxGeometry x="580" y="910" width="40" height="40" as="geometry" />
        </mxCell>
        <mxCell id="bDiA2zRultxk5sdH1IKU-97" value="" style="rounded=0;whiteSpace=wrap;html=1;fillColor=#f8cecc;strokeColor=#b85450;strokeWidth=2;" vertex="1" parent="1">
          <mxGeometry x="580" y="950" width="40" height="40" as="geometry" />
        </mxCell>
        <mxCell id="bDiA2zRultxk5sdH1IKU-98" value="" style="rounded=0;whiteSpace=wrap;html=1;fillColor=#f8cecc;strokeColor=#b85450;strokeWidth=2;" vertex="1" parent="1">
          <mxGeometry x="580" y="870" width="40" height="40" as="geometry" />
        </mxCell>
        <mxCell id="xk-oOxLGbY3HGCxId3EP-152" style="rounded=0;orthogonalLoop=1;jettySize=auto;html=1;fillColor=#f8cecc;strokeColor=#b85450;strokeWidth=2;endArrow=none;endFill=0;" parent="1" source="xk-oOxLGbY3HGCxId3EP-151" edge="1">
          <mxGeometry relative="1" as="geometry">
            <mxPoint x="619.9999999999998" y="470.0000000000002" as="targetPoint" />
          </mxGeometry>
        </mxCell>
        <mxCell id="xk-oOxLGbY3HGCxId3EP-151" value="&lt;font style=&quot;font-size: 14px;&quot;&gt;&lt;b&gt;&amp;nbsp; &lt;font style=&quot;color: light-dark(rgb(165, 29, 45), rgb(237, 237, 237));&quot;&gt;T&lt;sup&gt;°&lt;/sup&gt;&lt;/font&gt;&lt;/b&gt;&lt;/font&gt;" style="text;html=1;align=left;verticalAlign=middle;whiteSpace=wrap;rounded=0;" parent="1" vertex="1">
          <mxGeometry x="660" y="455" width="80" height="30" as="geometry" />
        </mxCell>
        <mxCell id="xk-oOxLGbY3HGCxId3EP-153" style="rounded=0;orthogonalLoop=1;jettySize=auto;html=1;fillColor=#f8cecc;strokeColor=#b85450;strokeWidth=2;endArrow=none;endFill=0;" parent="1" source="xk-oOxLGbY3HGCxId3EP-154" edge="1">
          <mxGeometry relative="1" as="geometry">
            <mxPoint x="620" y="550" as="targetPoint" />
          </mxGeometry>
        </mxCell>
        <mxCell id="xk-oOxLGbY3HGCxId3EP-154" value="&amp;nbsp; &lt;b&gt;&lt;font style=&quot;font-size: 14px; color: light-dark(rgb(165, 29, 45), rgb(237, 237, 237));&quot;&gt;Radiation&lt;/font&gt;&lt;span style=&quot;color: rgba(0, 0, 0, 0);&quot;&gt;&lt;br&gt;&lt;/span&gt;&lt;/b&gt;" style="text;html=1;align=left;verticalAlign=middle;whiteSpace=wrap;rounded=0;" parent="1" vertex="1">
          <mxGeometry x="660" y="535" width="80" height="30" as="geometry" />
        </mxCell>
        <mxCell id="bDiA2zRultxk5sdH1IKU-99" style="rounded=0;orthogonalLoop=1;jettySize=auto;html=1;fillColor=#f8cecc;strokeColor=#b85450;strokeWidth=2;endArrow=none;endFill=0;" edge="1" parent="1">
          <mxGeometry relative="1" as="geometry">
            <mxPoint x="620" y="509.65999999999997" as="targetPoint" />
            <mxPoint x="660" y="509.65999999999997" as="sourcePoint" />
          </mxGeometry>
        </mxCell>
        <mxCell id="bDiA2zRultxk5sdH1IKU-100" value="&amp;nbsp; &lt;b&gt;&lt;font style=&quot;font-size: 14px; color: light-dark(rgb(165, 29, 45), rgb(237, 237, 237));&quot;&gt;Humidity&lt;/font&gt;&lt;span style=&quot;color: rgba(0, 0, 0, 0);&quot;&gt;&lt;br&gt;&lt;/span&gt;&lt;/b&gt;" style="text;html=1;align=left;verticalAlign=middle;whiteSpace=wrap;rounded=0;" vertex="1" parent="1">
          <mxGeometry x="660" y="495" width="80" height="30" as="geometry" />
        </mxCell>
      </root>
    </mxGraphModel>
  </diagram>
</mxfile>
